<mxfile host="65bd71144e">
    <diagram id="HIP3nbAZw_EuaXWnEj3U" name="Page-1">
        <mxGraphModel dx="1086" dy="658" grid="1" gridSize="10" guides="1" tooltips="1" connect="1" arrows="1" fold="1" page="1" pageScale="1" pageWidth="850" pageHeight="1100" math="0" shadow="0">
            <root>
                <mxCell id="0"/>
                <mxCell id="1" parent="0"/>
                <mxCell id="7" value="http://ics2o.mths.ca" style="swimlane;whiteSpace=wrap;html=1;" parent="1" vertex="1">
                    <mxGeometry x="40" y="40" width="760" height="528" as="geometry"/>
                </mxCell>
                <mxCell id="8" value="" style="rounded=0;whiteSpace=wrap;html=1;" vertex="1" parent="7">
                    <mxGeometry y="20" width="760" height="60" as="geometry"/>
                </mxCell>
                <mxCell id="9" value="" style="rounded=1;whiteSpace=wrap;html=1;" vertex="1" parent="7">
                    <mxGeometry x="30" y="140" width="120" height="20" as="geometry"/>
                </mxCell>
                <mxCell id="10" value="" style="rounded=1;whiteSpace=wrap;html=1;" vertex="1" parent="7">
                    <mxGeometry x="30" y="170" width="120" height="20" as="geometry"/>
                </mxCell>
                <mxCell id="11" value="first number" style="text;html=1;strokeColor=none;fillColor=none;align=center;verticalAlign=middle;whiteSpace=wrap;rounded=0;" vertex="1" parent="7">
                    <mxGeometry x="40" y="135" width="100" height="30" as="geometry"/>
                </mxCell>
                <mxCell id="12" value="second Number" style="text;html=1;strokeColor=none;fillColor=none;align=center;verticalAlign=middle;whiteSpace=wrap;rounded=0;" vertex="1" parent="7">
                    <mxGeometry x="50" y="165" width="100" height="30" as="geometry"/>
                </mxCell>
                <mxCell id="13" value="Calculate" style="rounded=1;whiteSpace=wrap;html=1;" vertex="1" parent="7">
                    <mxGeometry x="30" y="230" width="120" height="60" as="geometry"/>
                </mxCell>
                <mxCell id="14" value="" style="shape=image;verticalLabelPosition=bottom;labelBackgroundColor=default;verticalAlign=top;aspect=fixed;imageAspect=0;image=data:image/png,iVBORw0KGgoAAAANSUhEUgAAAhEAAAHACAYAAAAcFDoFAAAACXBIWXMAAA9gAAAPYAF6eEWNAAAgAElEQVR4nO3dAXBcd37Y9992TrZ6ulqA5hpqFHMkghnlwrxSuAHncnFsgB4D9CnpiLzYQK+dxEc1KXB2Eh4viULM2BOSTtMCYVLjNB3HgJ05qslkrkCaI5lJKZNIj6Cdi2oTLaRZs6oaQtDIpxFTVwDtU6ozO7Od3+L3oP/+8d7bt/99i13sfj8zOyQW+96+93bx/r/3+//+/1eqVCoCAADQqP+AIwYAAEIQRAAAgCCf4LABAEIMrEmfiAzaolvrg7LGgewt1EQAAHIbWKsGDadF5JSIPO0t97qIHF8flC2OaG8gEwEAyGQZh7MWPPiBg+s5EbnlZCfQ5chEAAASDazJMyJywbIOjzdwlH58fbAaTKDLkYkAANSwzIMGD1/lyCALozMAADsG1qrdFhsEEMiDTAQAIM4+XBGRkQKOxgZHtDdQEwEAPc5GXNxqsO4hzYP1wWpAgh5AJgIAeljBAYRYNgOd6lpJi2Qv67we1YLZFypNze1BTQQA9KgWBBBCENHxTtvn/bSNumkKQQQA9CAbvpkWQLwjIi+uD0pJHyLyRXuuHu3KIIhol2ulQblWuiLXSpflWumZlK0otKspV3fGoRNzceHE8ts3zo4VuQHdwDk+aTZFZFWPn4gsvX3j7HqvHzMA7eMUUaYFEIPurJMaGAysVQOOtTqTTV3mY20rHVlz0jZAP6u5Vm8MNRF7o19ERu0xc+jE3PTbN87Opr3zoRNzk/o6Czwm3r5xdrPZrTx0Yk63YVFEhkRE33+hyfUVvo0A9swFm10yyYWkaav1ORv++a2MjWy60bIMyedF5EkR+bciUl4fbN1oD+vSOSYi3xORV4Om7L5Wiu8hsiYvVJKX1yyByluDkLVOzTK8UEk6Jm72ofGMw7XS8erImuR1JyKIKFaccUgy6jyngcS4iIylNL4zTuChjXVqwNGASWcbdP1NBREt2kYALTawVu0HT50DYn0wM5uQNQvlK8009gNr8mMi8qvWEP6g9zttROfXB2Xafj4qIr8uIp+y9/2rCev7p3ZV/v+IyFE/OBhYky+JyN8TkT/ivN/3B9bkD0Tkv1kflF/atZHXSmctALssL1TOWpHiXE125lppxQoWtywQmKuZ8fNa6UE1Y/BCJfk4bzfkF2qG2m4vM2eZnlvV97tW+np1Gz7erlPedOOnd4ICXV9aYLAd3Mx57/dOdfkXKnVnHSWIKNZqWnePZQLiq3exjMC8XsUnvHzTGuj4/0XY9NbfrFZsI4AWsm6M4C4Hy0akuRC63oE1+dsi8gsi8kjKS3S7zw2sydr6oHxTRH7NMhXqp0RqgwjLZujzPyAinxSRnxeRl7z3+3n7vesH7fHfDqzJ8+uDcsL7/QULBr5qNQcnZbeRakO/3YAndf/o8t+Qa6Vbuxr2a6XT1d/tpsuct+6KuAvqdPXn7SBgd8Cz/b5P2/b0pRRRDnrrdJe9YhmPzMwMhZV7RDMO1oVxzGl0x61bwKeBxVIR3Q4xW8+0rTcpcGlU4dsIoOXS6iB2WKai0d8FZyEsA3EuI4Bwfcn+/0ec576f8LpnvADhP3bebzIlgHDXo4HE2MCa/Pfea9xjlxRAxJ6zDED++pHtoCMpgEh7//j/eY572mtOZnwfHs8TGJKJ2GNv3zi7eujEnDbAN+2dd3Ut6GsKauhrZNVhBKyrJdsIID/LLJzy+sLFGo1bbsM+sOalyNNd0CLKhPR/X0bNQ3AWwrowPun8rLUJr1i2Qbfhb4rIXxCRhyLVLESz/q4TQHzf1hlvv77Xl62bRL04sCYL64PyRsp7fk1eqGwfk+0uBTcj8LjdGv1UNeOwnbm44tSi+J+FnyH6mnWbbFmAMZdYx7L9+0P2HXBf88rOOrO7JV7Z6e7Y3sY1J7A4ZZmKVAQRbfD2jbPLh07MLVj3Rr/WR7x94+xSzx0IAMHyzPEwsFZtxOKJhc7nfC9thNa0iDIermkZiLmUK+uLTWQhtNE65DylAcSfXR+U33Ce+6t+d0WogTX5T0Xk087iV9YHq90CO+81sFbdl0v2swY3f926Dnxak/BxUKX/3+6OcBv64zvdAduN9IWawlQNDrSB3+6ScI/t17x137L6i7XEz3u7W0TX7wZ+GzlqGt6RFyof79vH2xgHQ1mZlKo9DSKcuoBRr9BwyYaPJqbFD52Yuxm//u0bZ0uHTszFxXzj9hIdMrlQ70rblhu3R791KyzZsqt7PJR12fZBbN92ggh/f+25O1ZHoQ5nDRM9dGLunv692I9PxMWbWfvnfDbjzvvEQ1J3fS5J25jwmrZ+3kC3GliTtL5z33Mp/eX1aOPxrYz6h9jrTY7I+LzXrfC/eQFE0X7aW9+PWtBQbxuTJDXQt5wg4vWEeoK0Rv14zU9uAPHxcxvV+R+KvTFa0vY0NIPlntVE2GiEe5a+H/V+rb+b14by0Im5oZRVxOuZt66AcefpARvxcCdjuRlbbtIpCIwbuTsptQkt42UeBnK8j9vgpm6rHed4fQt5hl4eOjE3YMdmxgkgxD6neTvmDWn35w10qwYCiFbTEQOng4ZEfuxHvZ//VYu32e/2+aNOAaL7cH1y92qqkvZ7K/P36UWK7nDMlYztrztaokFND53dkyDCGpRFp/EWu8pd9oZEaoNy0xq1NJOWQZi1QkG3cR1KCgYOnZg7Z4U7sXXn/eNGtuGGsgDLtgq/kd3Frtrjbc0KeNzGNm8XyYyXfZi2R5ztmLRjmEu7P2+gW3VQACEWQDR134V9QGsmvtNBm9lxNzZreXeGpbTdBlobg1n3CtkakXlrTOPXp3UnbNr8CqvO8ktOoeK429DYumec5WsmerLt84OMTrVg26l1FJN+d4DtaxxE6HDT5Zz74S6zc9ytbuOmNfbn9Od6mY12f95At+qwAOLFgqa3/k0R+SvOzz8hIr9YwHrTvO89/3dE5H/JeP1GKye6crgZiqzi18GM37XFXmQi3O4DbUym/YZI+/et8YobitGMNPe026DY8svOVbN/Ve9eqe6aKdKGXk43cNXeTm5jOZ6wHe5zjTSs8efRb0HAzrFxshJpE2P52v15A13Hiig7pQvjxToTUjXiVSumjP0pG/JZj5sBedoKJl3D3s/xe/gBg56vdO6JW+7D1r+1RwGE7Oqm2K59EO+5wZQCz7bai8JK9yRfrxBu1tLg8XJJsz+mXV2vp9QWxO+/WacQbzalYW6luOFMm+Wyhja+h07MLceFinpF7xVYxgHTZoNB0ZItq8fv3qETc6vOcV5usICx3Z830FVsaGXRfeEhdBbDU0V2YdjkVfecYkSdn+F/Hlir1kb8mjX+XxGRL9jv/9b6YPUC6Te9eRq+MbAm12zkwxkR+Zzzu+/buvT9FgbWqueduFvggIj8XwNr8j+KyD+z585aZvSTA2vy2+uDNetqDZ0Ke3umyzgL8WW5VtqwIaEbNtRyLsfdVt2MxnEbsvlMnpknQ+1FJiJuVJbrXcl6xYaJV5gBN6/K1VD7V7utZlfe8RV7I+/tHqOdLItXULnU4L0spp3GOp7KesYeWvx4s14BpKPdnzfQbepOELUHrtpNuVpRA/EzIvLvnZ8/ZQHCvxCRb4vIf2b7/7gNt9Rg4O97DaYO2/wvbZkx73h919tu7RL+Q2/Zv2Lv9W1777iY0h1+2mr+XBs6JPd/t4vCb+T8Drj7qQHJ29V9ulZq2Y24mLGyfdxultxBhF9g6XQ/hHZlxF06+oc3Zcv62zOaowASQMGsDiLPBFGt9LX1wWoGoplRGKlsIqdZL5BI49Zb/axNQJXle3Yb8x2Wyfi7OZb9w+pcELUeOD/VG52R1hXyIPE129mCF+tskztyI+nW7Je99dfbrqR9cH+ftK4aexFEuP3e/VkvtKtpf7lm7YyAyHp/771bypn3QKybpdHCwPj1/TZ1tl9QmfvYaYZBizTjQs23b5ydevvG2WM298MxJ/PRX2dUSKzdnzfQTdKmmX7HGpwft8frLdhnXedn1wdbfzvp9cFqMeUX7D2/5/36A+u+nHJvimX30PgJ+13SMrqu/yRptkl7v5+w13zg/fr37PmfWh+U/9r73WlryC+m3I3zss0AeTVj/oyzzjpqA43tm3J91tbhNuAr1c/7hcpxC2xWEusjttd33JZfsYdOXOVmOS7Y9r1iWa6kdVy0ZTNnq5Q9qolYcroU6t3tMejqvI5lqb175ZT/cmeERstZt8Ci8z4hEyYtONs76Q2lbDQgmbfPZ1NHPbhdEDYB15QToOTp0mj35w10E/9qNr6b45ybGbCZH4ukDczZVmUfktgkU4O2P/HkS5mjI2yZw1Y3Mug8X7cGIOT95IXKlcSG9+Pfb9UtftwOFNILU7eDk/R1xHfuDF9+IyM4jV+TexrzvQgidoYl2gRB/SlD/ma8/vSiRku47z/pvP+qfHw1fC5nAxnMmb3xnNPoL4XMuugVWA45tRCNFlSKHZ/5+PNJCLLc45KnPqHdnzfQNdYH5azNqHjciisvpzTsRdZMfG0vsg9Z8gQBLjsmwcWDjb4fPtZoEDFkUxLnov3s2ngcOjE37fRlnbM5B9xCPrehiocVFsLef8q5+h+3LgB/9ZveFX2IrOPjFw6uJmVFGrDkrNMNShq6Lbd2YdiETUMWZI062YyBRievavfnDXQba9DrNeorBdZOdNyERuhcjQYR/SHj8q2h2nSueCVlPXqlO1H0SAm9yrU7Z86kDAuMG/Rmp1HOe3x2zVfRKDum57z9CZ10acyZVMqfnCs2lXfyqnZ/3kBPuVY6frf0H7537bH/4vemn/i1Txew66ebvCsnesiejc6wdPVhbzhhbMkaqcOtalDs/Y9ZsDBr27Bg73tsDxqyeDrpwwXeOMoNGhoqqHTZ6Iz42Lifzbq9x1ijxZ/t/ryBnrB918hvP1r5f//zie/9o0//8u/9tF8kGOJpm9wKqKtUqVS6/ijFcxzUa7D2+C6eABBuO4DYNYvlq5/8qQ9+7tP/7Ikmj2zb6yKwP3T9PBEWGNypd4MtqwWI5b3nBADsvWul42nTYH/h3/9PTxSQkaAuArn0wmRTcUAwlONukf4yANBZrpX6MocZFhNIFD1kFF1qL4Z4tps7T8TioRNzu24kZQWK8SiEZfrpAXSwC3mGdMaBRGDXxp5lIkql6o2lkmowPqpUKt8slapZF6lUPr7/Q6lU+owuY7/vS5n34JuVSuUj772+JCJvViq1E0XZezxaqVRedZ6L13ulUqnO/6DPnUo5Nhu6fbb+tUql8qazHp1Ea6tSqbyWsO9J8zlcsePhb48+96Q+Z9vrBnq6fa/q/pZKpc+LyGdStk+35Unvd6/p9mZ8DnrsU+e16PogQosYbS6IIXvcs1tJx3MeTHrzLDDcEEBn2r6h0lfzbpsGEl978Lfv/dLjv3jYnso7FLQV98hIs+VMqnXc/q+POABIyoo86TSUffaaNXcaZz+AMLrMM6VSacMJDJ5x3tf1eVvvcSfzs2HvF09uFb/n+8769f9vOut50h67goik7Xb2+/OlUul9DXhKpdKTFtC85iwXb8+jcdChgZNtQ5/3Gcbb96SznNhyXyqVSr+S8Tlk6oVMhHhDGNOmb2a4IYBO1/DQy7/24O/85b828ovVq3ibmfHbORbbs5kqK5XKTmNlV9gbbtahAWu2rnoetQb5cqlUejRj9sZBa9AHS6VS9So/zmBY4FENInK+Z5akddyy9/hCqVTasm18381MuMepVCqJl0XYyjiG7nJrNrX1Z+y5hj+HnggirPvimE2qNGqPeP6C5Xi4Z6MTNQHAntnOQny5wbf7euBtoDNrLtqgL+7WMEnZiUFreMW6LN5P2czX7Cr/M7aeR/2gyVL7j9r01KetgU7KJCR5xtvWvjpBmbvd7ztdId+0Bv60BTPpU2Xvfg/3eH2U1JXiLCdOpqJhvZKJqLK5DkInZAKAdmo0C/FKwn0W8tQ6vJh5/4j26LMUexb3SlwDgFdTXvumre+U8zq/huDzFohslEqlN+3n3EFEQpCTGUQ4/1+Lu0KsvmHN3nun+8Vx3AtW3MDPPV66njed5f3lNtwajkb1VBABAPvStdTiwTRfT7lRU71ARAOIrCvedtlwi/usEfSDissNdC1o4PAVW+9rlpWI1x3XMDxqhY99dmX/TM713/KKQLNvyJWy3Zad+LwFIJ/R7IhXEOrWjmx4mZeNjGLINXvEtRSaOXk0pYakLoIIAOh8p3PeZOtB9bXbd5usMbBWXcdzGct2agBROL0qt2LCpIYzbrjdBnswzgjsxfZZrcaX4mDAApEvWKFlHCyE1o5sxUFLqVT6yLIwT4buG0EEAHS+7Ns/b/t6NdPwwq60dywrC9ENAcRpKzAUCw5+JaELYEfG7wZtuORO94U1ttqI92Wts6DtvuxkWb7p/HvWnv9m8mpqaHbB/bxf84oyq6y75qNmAiSCCADoZNeqcxM8nbGFr1jwkNoIWBYibR2dFEC8mjC89FVLvbvW4mJAawj913yU0ti/mlJE+KpTL3IrYRvWbN6GeJ3vW6DhH/Ok7X8toyYiad/iLMituIvB6iMuO9tYb51+jUe8z0nLfTNhG67kDSp64t4ZALBvXSvpCf2kt/nv2O3BL2dkHnYMrFWzEOe9p7Xr42yvdGGgNchEAEBncwOIFQscGm34/avK1zWNvj64p5NKoQuRiQCATrU9N8SapZcvB875UDWwVs1caH//Fe7QiaIQRAAAgCC9cBdPAADQAgQRAAAgCEEEAAAIQhABAACCEEQAAIAgBBEAACAIQQQAAAhCEAEAAIIQRAAAgCAEEQAAIAhBBAAACEIQAQAAghBEAACAIAQRAAAgCEEEAAAIQhABAACCEEQAAIAgBBEAACAIQQQAAAhCEAEAAIIQRAAAgCAEEQAAIAhBBAAACEIQAQAAghBEAACAIAQRAAAgCEEEAAAIQhABAACCEEQAAIAgBBEAACAIQQQAAAhCEAEAAIIQRAAAgCAEEQAAIAhBBAAACEIQAQAAghBEAACAIAQRAAAgCEEEAAAIQhABAACCEEQAAIAgBBEAACAIQQQAAAhCEAEAAIIQRAAAgCAEEQAAIAhBBAAACEIQAQAAghBEAACAIAQRAAAgCEEEAAAIQhABAACCEEQAAIAgBBEAACAIQQQAAAhCEAEAAIIQRAAAgCAEEQAAIAhBBAAACEIQAQAAghBEAACAIAQRAAAgCEEEAAAIQhABAACCEEQAAIAgBBEAACAIQQQAAAhCEAEAAIIQRAAAgCAEEQAAIAhBBAAACEIQAQAAghBEAACAIAQRAAAgCEEEAAAIQhABAACCfILDBgBIcvXMkQERGReRSREZcF6yKSKzIrJ88uW7q/vx4Nm+3XOeGjv58t3lNm7SvkQQAfSIh9cPLFqDsPDI8/en8u71w+sHzonIqD1c1Ubkkefvc+LtQlfPHNHPfSZlz/rj3109c2Th5Mt3c3+f0F0IIoAe8PD6gfiKMjdbRgOPoZRltJE59/D6gYaCEnS+q2eOzFv2IY9Jvao/+fLdsU7Zsatnjui2z9uP6ydfvnu4zZuU29UzR+45WZ+pky/fXejk7SWIALqcZRLOBezlfEYA4Zp8eP3A6iPP3+/okx3ysQyEG0Csa9bJbcyunjkybt+p+PsxevXMkZmTL9+d3i+H+eTLd3W/Sh2wKfsahZVAl3p4/UBFH5Z27m9kLx9eP9DvdV9MP/L8/VL8EBG9sltyft9QlgOd6eqZI/1ewKn1Dsf8q+GTL99dOvny3WPaneU8fc7qDNBDyEQASOIGHdpdMeu+5pHn7+tV3IQFKdJokILGRVF0VkROicjlcrl8uUWHcNL7LCdOvnx3M+P1E1acGC+jy1ezEVfPHNEg9Kbz2sN29b/j6pkjN51gdfrky3drvmdSW9zp12fo+ywlrLPivW7AeW6nayOhsHLX9snHXSPjXlCtAbTWguyqB/JqSar1Ign1JUuW3VlNWS42b11L0qldG2QiAOxiQUJ8Qp20LpEdWi9hhZqxJY5ia5XL5TkReUZEvhFF0VYURXNRFD1T8Ju63VfLSY2qywIM97P3i2+bYt0m91IKPPW5e/aawmlWxoKc+YT90ve8aQ1/pqtnjtxJ2H5d/s7VM0fydBd2NIIIoEt53Q8hfdUTNpRPzcTdI5Z9uOd0YejVFPUQe+O0vcvjIvJVEXk7iqJbURSdLujd3UYt79BN93WFNYqWyVjM8dLFFjXGN3MERTN1gpjJOsckbfTLvkEQASDRI8/f18ahXsW9FlQee+T5+1kpbxSkXC7f0vbVW9uIk524ot0eURQdD3xHtysj72fqdycUVRcx7/x/3bpWSvqwAHc96bX2e3e00Hq8XN5RGtaF4Tb+0846Sl7QXC8bsWxdJXEtkRt0jVodim73rL3G3a8p5307MlCnJgJAoofXD0x6J/IkQw+vH9CsxJh1gbSFXYkXndrvVBsi8n0R+UFv+zQ7cdIeekz0nxURWRMRDT7WyuXyxn7YQcssuMHIlFt/oIWdV88c2XRqLoZ0mQInvqopKvZrNazOQbdxyN57IKXrZ9OtK9HXXD1zRAOcO85rhrwC1X2FIALALg+vHxj1Aohpt7jy4fUDQ3YFNm4n+5t2ldUup+2KHLVG7KGZCe32uGLZjDSbTjYib7FsTeahXh1FTjXdKkkFjPrc1TNH1p33H2qgC6Ye9/21y6Jet8OAn5Exy35hqgY6V88cKWgz248gAkASN0U75c8BYV0dOjoj7jfWQsvJds0VUS6XQ9P3+45lXb6Rsd3vWPahmoGoEzT4Vr1GeRe7Ap9xJpcKqaNoRFa3yrofxBSkqHV2fTcfQQSAJDVV+hlHaNlJ/e77SvNOF0VRn4jMJWzmO/b8lSa7LFadgtlRP01vAcQd+XhWy2lvjpBG0/J5GuusjEir5qVwgxPtjmD0UQoKKwEkca+gsirU3d9RXNl6F6z2QT0QkVdE5LPlcvkZHQJaQM3Dgvc5LsaFf2KpeGekz6QFFP3e8jE/vV/T4FsBZloQUDPiw0Zq1LDnBlKWaVZN8WOB6+06BBEAkrhXlPMJ80QM2TwR7gl2X97Ncb+IomjQhnW+LiIvaiFpuVw+XS6X14raBeu/d4sIh2w+g0nnNbPO98NtxGe9egg/qJyJR27Yv6nDNy1YqRl94Q6ltP+7NTurXlGl+94D7hBQNyjK4H7/J50Jn+J16HMf6CRW9igyI5IYwOfc7j1HdwaAJLOWpo5PXDpPRFZxmd7Nk5Rva/VZ1qGwoCGJBgnWKMaBw4A3c2KSZf++GRqQXD1zxO/uutdAUeG0E2gMWFYk67UuPwtyx1n2cL2smQ6n9IZ5TrqBlGehoGLS2LrzvuPObJsL3tDVjkAmAsAu8bTWObsolu21aCEtkGx1ABGzW3s3MkHZQMqVctY6lrJqKKwOIU+jOeGP3kjIZIQYy5FdW27BbdD31XBPgggAiR55/r5mF56whiDpxKbZiolHnr8/xmRT3ce6LQ7b5+83yOv2fNyADnj3yaiyxvyYNzX2ps29UDfwtAmWDqcEI9M2iVNaBmwsYSbV9by1O5pJsZuMTSV8/5dt7orCb39u+zyVcsw7TqlS8e9VAgBAPlbgqF1dY3Vu1oUuRBABAACC0J0BAACCEEQAAIAgBBEAACAIQQQAAAhCEAEAAIIQRAAAgCAEEQAAIAj3zkBPiaLolrO/H4nI+yKyZQ/sXzol9C0+P2BvEUSg14zwiXctgghgjzFjJXpWFEXP6O2URURvsXzc/n3ajofebnlORK6Uy2WyFACQgCACcERRpIHEaRE5ZQHFAwsm5ggmAKAWQQSQIoqi0xZQjFgwcbZcLl/meAHANoIIoI4oirSr47JlJlY0sCiXyxscNwC9jiACyCmKogsict6yEhpIXOHYAehlBBFAA6xmQkcBPC4iL9K9AaCXMdkU0IByubxmIzp09MY3oiia4/gB6FUEEUCDbJTGcQskvhpF0VmOIYBeRHcGECiKoj7r2niOrg0AvYggAmiCF0h81ro7AKAnEEQATbKZL9fs/huDTEoFoFdQEwE0yeaMOG3zSFzgeALoFWQigIJEUaTzRpwUkUNMRgWgF5CJAIoTj9KgwBJATyCIAApi2YdX9F4bNikVAHQ1ggigWHFNBHNHAOh6hdZEvDfx7DkRmanzsnURWRCR5acW31rNWNe8iEzaj/rasQK2b0BE7jlPjT21+NZys+sFXFEUaXfGl0Wkn5Ea2I8eu3g3T8Og5/H1D88fmU17wWMX79acxz88f6Tp8/hjF+/uOo9/eP5I7vP4Yxfv6vbM24+6/Yeb3aZW6+Rt/kQb3nMgDjTem3h26anFtybasA1AqofXD4yLyKLz++lHnr+feqJMcMWCiFPtqo8YXtnyT7R5TN0e6VsoaJ2Hb4/0rTe1E+h01eDgsYt39eJxopGGHN2j3d0Z4+9NPHvnvYln+7vpoGL/enj9wIAT8Qexu3s+sCCimwzw1UYCPX/ftKtl9JhWZiISuyDem3hWv2h6pTdqTw3ZSbsmI/HU4ltTemVU5AY9tfiWXhmVilwnus6inRSbdcvur9FNCCJ6067uAutSGPe6r+cfu3h39cPzR3a6qT88f6Tw8/iH549wHu8ge96d8dTiW5ouXfBqHjQjMWm/wx7SaZvpt9/28PqBGQtqN0Vkyfl+htAg4qTOZtmOOSOsKyHzRDu8sqX7esd+XLd9zuIGV3RX7LF2fZeSWEM++9jFuxpc3HS+GxqEd3yNAYrTjpqIKs00vDfx7KhzdTNuhTpVXpCxYJkJff6es8z0U4tvJfZVvzfx7AfOF7taQJlQWHnYshPucuO2LePO0xpZL6W9l3xctOlH5tVttGV3nXC9QtQFOybuc6n71wybpvmszbJ4yhq8nvbw+gH9rp2zYzBVwFV3fA8NPdYdN/HU8MpWv1f3MXF7pG+zzmI7QQQBRFscj7iQ1EcAACAASURBVKLogtXZXO6EgEKzDo9dvDvtdAEOPHbx7micufAKKxcsM6HP15zH04ozH7t4t+Y8rutNKKw8bEGNu1y//T2fc57W9iXX+TQl06J/H7NJ22p1ITvnct1P7zmxIH3WzdQUuc3t0u6aCDfzMJqzNqJmmaQXWCAQr2s17wgMC1wWvQBC7Op0Jq1+w97vXsrIFH3unr2m3vvP5BjdEiyKotNRFGnA8LbewloLAMvlMgHE9QNDzklQiyjrXZHnEQcRndqlMeOexG+P9KWOlHLEryeAaAO7S6xmDc/r37DOkBpFUdvrbj48f2TBGthY4nnZU/c8/tjFuzXn8byFm49dvDtk5+Nz3q8mLfOWeYFg75t0PtdtmdEAyIKMrHXcSVhe13vHtq/QbW6ndgcR/pdi18FN4AceSQfX/VLmahCska+Xvh7yX2PZlMX0RXYsvjfxbNb+DSV8gZqmWYcoiuaiKNKTzzd0IiRb5wPmMqgGEO4V+UKDozBSdXIX0fDK1qjzPV69PdKXd5/jE/rm8MrW+PDK1uLwylbFeczbutE6p5016xTr34qiaEMzFJZhbBf3XN7weTylUW74PG5X81l1Tf1Z51kLIOqdzwfqvGayzjGoCS6a3eZ2a3cQ4adP62Yinlp8a9P7QiVd4bvP5a2zcL+w+gfxxFOLb5X0YV0SMT/QcCv59Qptwlluwrtqy6r6j790U/HyIV0ZOlOiZRwuR1G05mQdHvdeeoFaiKp5OymsPvL8/UILwDqYe0KabmAz4xP9UErGTv82bg6vbHXsCW+/s1vNf93bjaed7MQtu2g4vcdBhXsur3se//D8kVadxye9q3Z9jyc+PH+kpI8c63EbeG0HjjnLjjnn8yELONIsWzdLyWpE3EzfqAUORW1zW7WtJqJJS84XbNztM/K6MpYs6GjUsrucNeaztv5+572GvA9/yu06eWrxraX3Jp7dtMIjNaTLZEyypQFI7lS6FkVaunzQ+dcPFpJ8T2shOiEVukfWyuXyrqzLw+sHztn3Z90fHdStLFMQB8zLt0f6GhnbnzelOjO8srV+e6SviG6hXLThtO9/L9Dz9v+Xcv4ecbKNelweWM2TBh+3Oqz7MvU87nVlLFnQkYebAdDJrWr+rq1WQZKyztalEH/HN23ui01n2WWr/4izEPp3lPQdr1lW6zUeu3h3yiliFtvOZef/QdvcCdqdifAj1lxfFGtodyJCr5vAjQ4bOYm5DbvWP5yzR802ekGJ+76JtRf23HrKMjXv30gAYZ6xE+dgAwGE2Amop1kdRHzVMfHI8/d7pZ/fPRHl/r5ZIea089CJqUrxIyHrRjaidfTv96Oca3/cPUe0MDvhnidzncc/PH9kybuyL+I8XtMgp7wm7Xl3Wd2fD3TmTvfhdWOkBdXLftCTVkxZwDa3XbszEX7/aZ7irtiC0wjoelatwY/XudlIo6zDS62+Ij75xevWgELiytyMLoasP5z1HFdxDTdiltqMC/jiURduZuK5lEU1gzFnkyL1KvdkcOfh9QNZh2HGhn9WPfL8/X05Rt0CgaCTs43cSO1e06zD8MrWqlM1P6Tvl2PERyGSMk3dykZojGTs3kqcebAs3F6M4nDP5U2dxy3Vv3Met2AjL/c8m/bdS3u+qEkPG/3ON7PNbdfuIMK9KlpusOthyfnyTdoJbtT5IjTcj/TU4lvTOhW3sx73aqrfAoqhlKm6s76AedLATX9J7GRRM82y9o1aMZZ/0tF+01s9XBfR0mpn62rqNDUBRNENvA771G4M59j2d/LJbz9yhmf7rtqwzz2/MLCZKt3zXyNXzUWfx/3vX5K0593vqo4GOdbge4dqZpvbrm3dGTac0i8myc3mXYi/rAPWpRGaAtuh9QqabdCAwimQHHO+YONOF4cbcQ/ZSA1/P0e9/WwkSm+aDgsrl8ualThkBVkPbJ1PMzqjpeL++bU2vX8SN23aUObLG4mR2FVh99bIc1WFcHNOt+U7InJR/7bL5fKpNgUQQ14x4noj99Cw+R12zuO2vmbO4zUFjCmvSXu+5nxebxhngZrZ5rbb8yBCZ6Z8b+LZm37fbOBsle4XbNL58q1m3SE0YZv6dXKq9yaerdijXn9u9WRs71Ez+sKdD8L+747IaGi7iqRZCk35lstlvUJ+0VKe59s8LKxttEsi6+GNWph2X5tzm+MgopMmmgoOIvyaoeGVrRnrHqnSIZ9OAbFY0SZBRIGiKDpuwzo16/DFcrmsM1heaMekU9rA2mRKd7yr5JAC5dTzeJ1agiT+KIhFdySEN/lVDXsv9+9C7wcy6iw7YOuL6ySauseOI3ibO0EruzN0Doc8t5NdbWJu9TgV1h9aMCZWLGndGPE6ZmzipySb3ofuVusO2HwQaW/VyHC6lrFJay73agCxRzSIeGB1K52imSBiwRuKVp1Zb3gltTeso2fZ26c2LOuw10HDTRsdUM9UQKMvRZ3Hjf89rc4+nHP7JeF8nrXvRX3Hm93mtmr36AzNQBwLHIaZNGdELCSrMZ2zq2HCG/65lDMImsg7c+ZesexEx03J3CWOd9J04tbV4GooiLCswljev5EGh44ihw7+e920KamD5jNImDMi1vD6bF0TdbrSUi/mrIgzz/l8zJ9qO1Sz29xu7Qgi1u2AHEspUGyU/0ULmhtCl9GAxrYt6QQ4bffaSBrGuWATiiR90PFyezZmHu2lE35ZzUlXTSmuhZO3R/rS/kY24+/6Xs4PgbZasPtePNFIHUSKXefxBuaGqGHZkMMJmQJ9j2P1AmELhjLP5wXsb6Hb3E6lSiVPjwOAvHS2UBH5cptSzwCwZwgigALZ0M4Nmx2wV2YEBdCj2l0TAXSbszYEb45PFkC3IxMBFMTJQqzZ3BwA0NXIRADFuWBZiAscUwC9gEwEUACbCOjbOhEQtRAAegWZCKBJ1o1x2aYUP83xBNAr2n0DLqAbXLZ5Ib7Ywzc0A9CDyEQATbA5IfR+Bl/v8VurA+hB1EQAgZxJpV4pl8t0YwDoOWQigAAEEABATQTQECui1HtiPEcAAaDXkYkAcoqi6JRNJqUBxNcIIAD0OjIRQB1RFD1j01hrAeU7InKqXC531R06ASAEQQSQwoKHC1b7oL6uPzOMEwC2EUQAniiKtJvilGUe1CsWPHTNbb2HV7buiMhQ/PPtkb5Se7cIwH5EEIGeZoWSgyJy3P6NA4cH3Rg8yHYAMeMGEAAQiiACPcWyDProswJJ1zsWOFzp1omjhle2xkXkXAdsCoAuQBCBXqV1DRdt37VIcqPbMg6+4ZWtARGZt6dnCSYANIsZK4EeMLyy1S8iN60bY/X2SN+x4ZWtnT9+aiIAhGCeCKA3zFsAsS4iY3zmAIpAEAF0ueGVLe220FqITRGZuD3St8lnDqAIBBFAFxte2dLsw4zt4dTtkb5VPm8ARaGwEuhgwytb90RkIGEL12+P9B3O2nKrg1i0H6dvj/Qt8VkDKBKZCKB7zVsAsnR7pG+WzxlA0chEAF1oeGVr0uog1Lg7EiOJ9/tpgg4AeRBEAB2sXpdFhn4+VwCtRncGAAAIwmRTQI9isikAzSITAQAAghBEAACAIAQRAAAgCDURAAAgCJkIAAAQhCACAAAEIYgAAABBCCIAAEAQgggAABCEIAIAAAQhiAAAAEEIIgAAQBCCCAAAEIQgAgAABCGIAAAAQQgiAABAkE9w2IDWiaJoUET6OMQtt1Eulze6fB+BjkMQAbTWnIiMcIxb7qKIXOjyfQQ6DkEE0FpnyUTsCbIQQBuUKpUKxx0AADSMwkoAABCEIAIAAAQhiAAAAEEIIgAAQBCCCAAAEIQgAgAABCGIAAAAQQgiAABAEGasBLrY8MrWqIgMiciMt5fL+rg90jebZ++HV7YGROReziN1+PZI3zrfK6D7EUQAXWp4ZUsDh3Mpe6fBxejwyta4iEzkaPQH+J4A8NGdAXSh4ZWtcxkBhEuzFPM5XkcQAWAXMhFAdxp39mr29kjftLuXXpZCMxL9t0f6NjOORL/zf7orAFQRRADdaSwrKNCgwroy4gyDBgm5gggCCAAxujOALlQnqxB3d8QBxHoDNREEEAB2kIkAeoAFDf4IDbHsw0SOIxBnIjYtgzHudZksiMjS7ZG+Zb5PQO8gEwH0rk2rb1jNcQTiTIQWYi56AYSaFJGbFqwA6BEEEUDv0uzCBzaXRD15R2fMWKYCQA8oVSoVPmegx3ijM+KMRGIdhY7csExDbPP2SN+C8/tx6yqJA43V2yN9x/hOAd2PIALoUcMrW/NOcDCdd/bKJAkzWj5Rr7gTwP5HdwbQZbQuYXhlq2KPpGLKmDvSor+Zo2CjOwpbH4D9gSAC6D7uCIlJyxIkGXKeS80aDK9sLTpBSWLhpL2H+z5kIYAeQBABdBkbbRFnBfpt1MROsaPWOFhXhlsAmTVCw/2dFk7OWJ1EvD5dz03nNct0ZQC9gZoIoAtZw76Yc890fofUuSIsYLjTwAiNMeaLAHoDmQigC90e6VvKOYmUNvZTWS+wrMJYnWxFbIIAAugdZCKALma1CuM2nNMtdlyyboeFRvbeaiJG7RHTIGPWMhpMiw30EIIIAAAQhO4MAAAQhCACAAAEIYgAAABBCCIAAEAQgggAABCEIAIAAAQhiAAAAEEIIgAAQBCCCAAAEIQgAgAABCGIAAAAQQgiAABAEIIIAAAQhCACAAAEIYgAAABBCCIAAEAQgggAABDkExw2oPsMr2wNiMi4iEyKyICzg+sisqCP2yN9m3l3fHhlq9/WdU5E+p1fzYrI8u2RvmW+RkDvKVUqFT52oIsMr2xp8LBYZ480gJjI0/gPr2yN2vr6M142fXukb5bvEdBbCCKALjK8sjUkIndy7pEGEoezMhKW0bhTJ4CIaVCyxPcJ6B3URADdZdzZmyULEkrxQ0SmLHgQCwxG6+y9230RZy/idR0TkVXvtQB6CJkIoIto7UK9Wofhla15q29QU7dH+hYyXvuBE0SM+d0flqm4F/9swQWAHkFhJdBFcgQQ4162IrUmwoopd+ockuonbo/0rQ+vbPEVAnoUQQTQxawo8mbKHmoWYj1t7y0gySyWtKAktpr1WgDdhyAC6E27uiYaNbyypV0i885iqd0iALoTQQTQRl59gu9wVqagSTeHV7aChmXaCJAZryhzOqu2AkB3IogAuphlG3aKHS17MGPFkjPDK1urjWQkUoKezOJMAN2LIZ5AD7HGftrZ47QsSA2trRhe2brnvT4eQkoAAfQoMhFAG90e6ZuyuRua5k00pRmGYynrdLtIBlJesyNhBkwNHmZvj/RRSAn0ODIRQJewRj0e4jnkjZxwDTn/rzckdMgJIDatIHOCAAKAEEQAXceddnpxeGWrZhZJ+3nGeapePYSbgch1rw0AvYMZK4Eu0uC9LrRb41jaBFUN3ocj1soRJQA6DJkIoItYAz7m1T0kWbfMQlZ3xlDG7wCAwkqg21i9wmHruhj3ggH93RK37QZQBLozAABAELozAABAEIIIAAAQhCACAAAEIYgAAABBCCIAAEAQgggAABCEIAIAAAQhiAAAAEEIIgAAQBCCCAAAEIR7ZwAtFEXRaRF5hmPccrfK5fKtLt9HoOMQRACtpUHECMd4TxBEAHuMG3ABAIAg1EQAAIAgBBEAACAIQQQAAAhCEAEAAIIQRAAAgCAEEQAAIAjzRAD7RBRFx/fxZ7VVLpfXOmA7ABSIIALYP769jz+rFRHZz0EQgAQEEcD+8oqIXN5n2zzXAdsAoAUIIoD9ZWO/3SMiiqKtDtgMAC1AYSUAAAhCJgIAesClowfPichMjj1dFZGll954d7ZHjsu8iEzaj8svvfHu2B6+t77vvP24/tIb7x7eq/cuCkEE0GUuHT3YbydFbTT6nb2btcZhtdE9tgZo1B6uaTvxNrxOdKwhfdhnPsZniyx0ZwBd5NLRg9rI37Mrzn5vz7RRuHPp6ME8V6NVl44e1MYkXp8fQIg9f8caHHQX/f7ctKAUSEQmAugSFkDczLE35y4dPSgvvfHudNaLrPFYFJGBHOucuXT04OpLb7y7zPdpX0hM2186enDAgs04vR9ntbq2a+OlN96dEpGpDtiUfYlMBNAFrMGfd/ZkXUQmXnrj3ZI+ROSYNhzO789Z0JFl1AkgVi21XXLWOWbPx+qtDx3upTfeXbdGdcnZ0iE+N6QhEwF0h0mnwd+0Bn893jPr1x67dPTgHadROOcFFr5lCxYSadbh0tGDC07wQto7UBRFV0REZ/S8XC6XNzpgk/T7Mm7/T/xcrShw3AseNfhYSMpIeYWd+pqphGJPzXjMvvTGu5vOMm5tz5L9PrVOw5aZ9DJoC1YPlLRdbmHlggVRjWxz5jZZgB/vh7s9ubM7LTjW00UVzpKJALrDuLMXs24A4XFPHKNZ/d3xiTyN1ks4J1/xshJojE7IdV5E3taAIoqiU20+fm72oeZ7oN+ZS0cP3rTg0c8+jVsdRd0aGQto/fqcc3EdhvN79zs6bjU4u7Ij3jJ+F9ykrXfSX64RKductU1DVqPkHw/djjv1ugoLPNYzOUfmNIwgAugO7gksM7vg/dxQqvrS0YOV+GEnwXh5vdpZ4LsUxiYQu2oLnxSRb0VRtBFF0VwURc/s1XZoTYRdmbtBqf+duZmj60prZMYzfj+Z8d0b8r5bietPeG4+x/d5polC0axt3rVNTk1R2vv1JwQXviKO9VCO9wlGEAHsc1YM50rNIFh2wc1S5CmarGfaTQEj2FkReeAs/LSIfNWyE7eiKLpQ4E3YRt2A0AkM7/nZJTc4tCt5tyGd9upk3ECyXsOlwckTTn2N+70dsO/pMfv9Yb/+xg0G7G/AbUinnW1yC4j7vdc1Srf5cJ5tSuhSWYr3N+FY7VLgsY7XMeUsX1ihLDURQJfJ6MpoFb0SGm10kp4oik6LyJ5dZe8Tr4nITyZs6og9zkdRpD+/bjUUmsFYa9EdUrXBnPCec6+Kd/WrW9/7kDPXxEDK93HTCn835eP6mlnvan4qrjPQdVw6enDaG33U7wQeNbUC7nbp/22bMms8cvC3WbdpyrImsSEnc1OTHXzpjXdrjqUdK/GCNldRx1psu5dSftcUggigy9Q5mTTFLbS00R0zdhLTq7BzDV7hnLaGEY17zh5f1oBCMxUicqFcLhd1n5K0RsdtGGdyzDky4GW+YssJNTfu6zYTCgb99eys27IlWVf2mfU9Oe3aZg1yLBBIkqeLcTkjiCjqWK+2KoAQgghg/7MrInc/Uq+0LN3qpliDgw27epywFLhYSjV3EFEul7k1uCeKossWGKR54GQg4ixESOBQM0+EfS/cQr9Rb5hnrIjuL0lp1Dfr/L4uuzKPr+Dz1Bw0u81ZBnIsm7XOoo51SzOTBBFAd1h1rlxGM0ZK+EVaWUPlPnACkieSRmt4AYxWkvfXG9WBZFbvkBRAvG6jN1rVbVGtlbHuhHi47uSloweThkSuO41by1LkjXKKGDtprhL3WGUVV+ZZvplj3dK/Rworge7gnmDOJRRb7vzO+X9SStlVMzlV0gv8YW0EEE2ZcxbWjMMrIvLZcrk8WC6XL7cqgIhZl4D7mSelzzt1cjE3gFjyigjrFjG2SJ5jlXUM98VEbgQRQHdYcNKW8T0PdqrQ7R4YN71+1npdD/4Ml/NeRfy4nbyTXo8GRFF01mocNOvwohaclsvl060OHBK4IxmGEuZVcD/jSRsOukNfrxksZ8RHUSn5etxG1h9Rci6j7qCV/JEbi97fz3yd7erUY12D7gygC1g6esqpXtcTymJG0ddsvftc6InYG2Y2aSeztEUy78WBuj7bhqChhhUKLjiN24x1a8QjEnZ9JzImcFrYw5FCm07XQJ4ixL2w4A3z1KB7POPvp0YHH+saZCKALmFBgT/ePslsvZtvOcZyZhgmuGV0uHK5PNfuAMIx7XyHkooT/XumJFne47lDsrJqm97v92R6dgu8Jur8Pdb7O+zEY12DIALoIhZIHPYagtisTd6TO2OgJ0Kr4vdvyiS2/mmbfKcjCuzQPGv83Ea35mZt9p04Zt8JP8BctnqEhuYMaZYNLZ5I2J5Zu/lc0ROs5WKB9eGEIGfBtiszQOjEY+0rVSqVdr4/gJyiKNI/1ovlcvnCfjpmNocBQzqBLkQmAgAABCGIAAAAQQgiAABAEIIIAAAQhHkigP3luN4Sep9ts96pc6MDtgNAwQgigP1lZJ/e+ZIgAuhCDPEEAABBqIkAAABBCCIAAEAQgggAABCEIAIAAAQhiAAAAEEIIgAAQBDmiQBaKIqiQRHp4xi33Ea5XGYuCmCPEUQArTW3TyeH2m8uish+m8kT2PcIIoDWOksmYk+QhQDagBkrAQBAEAorAQBAEIIIAAAQhCACAAAEIYgAAABBCCIAAEAQgggAABCEIAIAAAQhiAAAAEEIIgAAQBCCCAAAEIQgAgAABCGIAAAAQQgiAABAEIIIAAAQhCACAAAEIYgAAABBCCIAAEAQgggAABCEIAIAAAQhiAAAAEEIIgAAQBCCCAAAEIQgAgAABCGIAAAAQQgiAABAEIIIAAAQhCACAAAEIYgAAABBCCIAAEAQgggAABCEIAIAAAQhiAAAAEEIIgAAQBCCCAAAEIQgAgAABCGIAAAAQQgiAABAEIIIAAAQ5BMcNhQpiqLjInKcgwp0nMvlcnmDjwVFIohA0TSAOM9RBTrOLREhiEChCCLQEuUrExxYoAP8dvnfyYu/cIuPAi1BTQQAAAhCEAEAAIIQRAAAgCAEEQAAIAhBBAAACEIQAQAAghBEAACAIAQRAAAgCEEEAAAIQhABAACCEEQAAIAg3DsDbRedWsy9Ce49OfIstx/u4fE3Lv0b+fV//W71/3/6uQPyqxdH2r5NaZZurMvFX76Tup3/5vX7cuNfv1t9XeyHPvUD8pf+/Gdk/MRA9f+t9PqNN+XGr/xG5jv88R8ZkD/+I4eq/3Yi3Yf/8zvr8s4b393ZugOHP13d3j/1xec6cpvRuwgisC/97v0Pu+KD+0f//M2dAKLT6bb+0v/wRua+JP3+97/3h9Xn9fe/dnFEjhzub+ueagOtj+dOfFdOfOXH2rotPg2ANIjw3b/3e9XHO69/VyYu/NkO2mL0OoIItF1WtuDuvU2Z+Bs3q//Xq9mYNkyxVmYb4itvpVfeegVeFA0etHHVq3N3fzqJBmtfmPqXdbdIXxcHEHqMvvYzR3eCBd3Pi/9wtbqPF375jiz+g7E92cPhv/i5XVfuenV/4x/+hmzd/4NqY61X908f/aN7sj316PbEAcRzJz4jw3/hc/Lop35QPvre9+XGr/zmTnbif/3W62Qk0DGoiUBH++t/7zvVzdMGSRum2Lvvf6/6v1anx1tFG11tWNX5nx3a919C7caInf+5YzXZhp/8Mwd3AkANCtsZMGnAcOJnP84+6JV9p3j95v9R3RLtutAMiQYQSv994W/+xM7PmpEAOgWZCHQsTX/H3RYXfu5YzWb+/ocPq//+8IHH9uUHqMGRNqbauGojq3URnUiPb5zpycpK/NBjj3Tk9id5/MAP7TyrGYlO8TOXvtgx2wLkRRCBjqQNrAYRSgvy/H70+Gr28U/9QPV1S79+byfg0NfGjXOz9L31USQNGPSK3M+uNCtvgaoGBq/O/7lC90m7MHS91QzLL9/Z1Z3hfpbtzh49uP/7O//vO/AfNbRsvboQl2ZkivruaK2EdmtItTD0UCHrBIpAEIGOpLUIcaDwl37qT+zaxN+17gxNo7updLGUuTbUr71+v3oi7yRxIaU2pP/d3/qRrvnyxfujGZbqZ2J1LC4N6tr9ecQ1EbGnn+uMeogkl/78r9Y8q90ZJ77yox07qgS9iSACHcfNQmjDk9RlEXdniF3dxo2TBhBavKf/aiDy+ecONJSR0Ktod3hiFr3ados969Ftiq9i/8FLf7rwrph2D2eN61TS6OeqmYq96oK6/Y9/q/pIo4WXjRZV6ufdyGdeJM1EdFL3CyAEEehEv/6d393JQpz4kR9O3EINDjRdrlfAbspYn9Mr4rjv/sZ3freQbo1maeP5l8+vVNeiwUeRozw6gWZX4roOPd66j3GwoJkJDZ70Xx1po6Mz2lnLooWLP/mVH6v+28le+uf/1c7W6YgMNyhidAY6BUEEOs5rTvdEWmOb1desDZQGE3rl/zv/9oOGdk8zGq1IuWsDGgdG2qCm9avr6+LahkYnnmpnTUS8P3rcNcvi0v04aIGdHgOtXymyFiSNO8RTr+L/8Uvfql7JP7j/B/J4g7UQsXbVROh+6KgMHeb5WwzxRAdhiCc6TlzjEGcafHrVqw2mPuJuD7RP3E2h/mTKRFIauMTZBw3u9prWE3zui4PVd9WA4vY/Se/maAcNDrQGQh+adUgSZ07o1kAnIROBjuLOI5DWIP3JP/bEzv81a+H3UWuDFjdU7mtDFDXZVL1RHqHZB1e7aiI00IsnzPqdlABBP5M40GjX6AydwEnnYtArep3U6bmxP9Fwl0araiK0NiOeWErnrkjKNMRzWujrGh1VArQKmQh0FLc474ef/FTipukVbdwga9ZC++LjwEODh3iCKvXTBQ/PRLKftNqVeGSMOy25fkaNfCba7RFnmvyRN80a+Yuf21nDSkbR5V7TwOC5se3gREeQXPv7/2pnSKfYEM/4XhoM8UQnIROBjuKOusi6YtU+dW2otJHR7o2k+090YwFjp8rzeUgHfCZ6xV/NSNx4s9ooVzMSJ9oz2sKnNRzv6/0x3vjuzv09fLr9Oh020CkIItBR8k6JrAGGpv3jeRfcfnbNUpz4MwcLaaxaMdlUN4o/D+3+ec0CCVccPLT75ltKayPie1T81rfWqnNFdEr3gN5cK+0untr90ikBDxArVSoVDgYKE0XRBS1M3w+34EbnikdBFH3Ts1702+V/Jy/+wi3d8x8vl8u3ev14oFjURADoo/X+jAAAALNJREFUKJqNijMZB1PqYgB0BrozAHQMdzRMfD8OAJ2LIAJAx9E6lL2YkApAcwgiAHQMClmB/YWaCAAAEIQgAgAABCGIAAAAQQgiAABAEIIIAAAQhCACAAAEIYgAAABBCCIAAEAQJptCS5z++W9zYIEO8AfO7fWBohFEoGgbIrJy53f+bw4s0Fm2+DxQNG4FDgAAglATAQAAghBEAACAIAQRAAAgCEEEAAAIQhABAAAaJyL/PwAxhnxGij/8AAAAAElFTkSuQmCC;" vertex="1" parent="7">
                    <mxGeometry x="500" y="120" width="209" height="177" as="geometry"/>
                </mxCell>
                <mxCell id="15" value="*Answer here*" style="text;html=1;strokeColor=none;fillColor=none;align=center;verticalAlign=middle;whiteSpace=wrap;rounded=0;" vertex="1" parent="7">
                    <mxGeometry x="60" y="320" width="60" height="30" as="geometry"/>
                </mxCell>
            </root>
        </mxGraphModel>
    </diagram>
</mxfile>